<?xml version="1.0" encoding="UTF-8" standalone="no"?>
<svg width="500" height="150" viewBox="0 0 500 150" fill="none" xmlns="http://www.w3.org/2000/svg">
  <path d="M283.5 50.5C283.5 44.5 285.5 40 289.5 37C293.5 34 297.833 32.5 302.5 32.5C305.167 32.5 307.5 33 309.5 34C311.5 35 313.167 36.3333 314.5 38C315.833 39.6667 316.833 41.5 317.5 43.5C318.167 45.5 318.5 47.6667 318.5 50C318.5 52.3333 318.167 54.5 317.5 56.5C316.833 58.5 315.833 60.3333 314.5 62C313.167 63.6667 311.5 65 309.5 66C307.5 67 305.167 67.5 302.5 67.5C300.5 67.5 298.667 67.1667 297 66.5C295.333 65.8333 293.833 64.8333 292.5 63.5C291.167 62.1667 290.167 60.5 289.5 58.5C288.833 56.5 288.5 54.3333 288.5 52L283.5 50.5ZM302.5 62.5C304.333 62.5 305.833 62.1667 307 61.5C308.167 60.8333 309.167 59.8333 309.9 58.5C310.633 57.1667 311.167 55.6667 311.5 54C311.833 52.3333 312 50.6667 312 49C312 47.3333 311.833 45.6667 311.5 44C311.167 42.3333 310.633 40.8333 309.9 39.5C309.167 38.1667 308.167 37.1667 307 36.5C305.833 35.8333 304.333 35.5 302.5 35.5C300.667 35.5 299.167 35.8333 298 36.5C296.833 37.1667 295.833 38.1667 295 39.5C294.167 40.8333 293.583 42.3333 293.25 44C292.917 45.6667 292.75 47.3333 292.75 49C292.75 50.6667 292.917 52.3333 293.25 54C293.583 55.6667 294.167 57.1667 295 58.5C295.833 59.8333 296.833 60.8333 298 61.5C299.167 62.1667 300.667 62.5 302.5 62.5Z" fill="#4A4A4A"/>
  <path d="M319 32.5L319.5 38.5L321 38.5C322.333 38.5 323.5 38.6667 324.5 39C325.5 39.3333 326.333 39.8333 327 40.5C327.667 41.1667 328.167 42 328.5 43C328.833 44 329 45.1667 329 46.5C329 47.8333 328.833 49 328.5 50C328.167 51 327.667 51.8333 327 52.5C326.333 53.1667 325.5 53.6667 324.5 54C323.5 54.3333 322.333 54.5 321 54.5L319.5 54.5L319 60.5L321 60.5C323.667 60.5 326 60.1667 328 59.5C330 58.8333 331.667 57.8333 333 56.5C334.333 55.1667 335.333 53.5 336 51.5C336.667 49.5 337 47.1667 337 44.5C337 41.8333 336.667 39.5 336 37.5C335.333 35.5 334.333 33.8333 333 32.5C331.667 31.1667 330 30.1667 328 29.5C326 28.8333 323.667 28.5 321 28.5L319 28.5L319 32.5Z" fill="#4A4A4A"/>
  <path d="M338 28.5L339 35.5L339.5 35.5C341.5 35.5 343.167 35.8333 344.5 36.5C345.833 37.1667 346.833 38.1667 347.5 39.5C348.167 40.8333 348.5 42.5 348.5 44.5C348.5 46.5 348.167 48.1667 347.5 49.5C346.833 50.8333 345.833 51.8333 344.5 52.5C343.167 53.1667 341.5 53.5 339.5 53.5L338.5 53.5L338 60.5L339.5 60.5C342.167 60.5 344.5 60.0833 346.5 59.25C348.5 58.4167 350.167 57.25 351.5 55.75C352.833 54.25 353.833 52.5 354.5 50.5C355.167 48.5 355.5 46.3333 355.5 44C355.5 41.6667 355.167 39.5 354.5 37.5C353.833 35.5 352.833 33.75 351.5 32.25C350.167 30.75 348.5 29.5833 346.5 28.75C344.5 27.9167 342.167 27.5 339.5 27.5L338 27.5L338 28.5Z" fill="#4A4A4A"/>
  <path d="M357 28.5L358 35.5L359 35.5C360.333 35.5 361.5 35.6667 362.5 36C363.5 36.3333 364.333 36.8333 365 37.5C365.667 38.1667 366.167 39 366.5 40C366.833 41 367 42.1667 367 43.5C367 44.8333 366.833 46 366.5 47C366.167 48 365.667 48.8333 365 49.5C364.333 50.1667 363.5 50.6667 362.5 51C361.5 51.3333 360.333 51.5 359 51.5L357 51.5L357 60.5L364 60.5L364 51.5L363 51.5C365.667 51.5 368 51.1667 370 50.5C372 49.8333 373.667 48.8333 375 47.5C376.333 46.1667 377.333 44.5 378 42.5C378.667 40.5 379 38.1667 379 35.5C379 32.8333 378.667 30.5 378 28.5C377.333 26.5 376.333 24.8333 375 23.5C373.667 22.1667 372 21.1667 370 20.5C368 19.8333 365.667 19.5 363 19.5L357 19.5L357 28.5Z" fill="#4A4A4A"/>
  <path d="M380 28.5L381 35.5L382 35.5C383.333 35.5 384.5 35.6667 385.5 36C386.5 36.3333 387.333 36.8333 388 37.5C388.667 38.1667 389.167 39 389.5 40C389.833 41 390 42.1667 390 43.5C390 44.8333 389.833 46 389.5 47C389.167 48 388.667 48.8333 388 49.5C387.333 50.1667 386.5 50.6667 385.5 51C384.5 51.3333 383.333 51.5 382 51.5L380 51.5L380 60.5L387 60.5L387 51.5L386 51.5C388.667 51.5 391 51.1667 393 50.5C395 49.8333 396.667 48.8333 398 47.5C399.333 46.1667 400.333 44.5 401 42.5C401.667 40.5 402 38.1667 402 35.5C402 32.8333 401.667 30.5 401 28.5C400.333 26.5 399.333 24.8333 398 23.5C396.667 22.1667 395 21.1667 393 20.5C391 19.8333 388.667 19.5 386 19.5L380 19.5L380 28.5Z" fill="#4A4A4A"/>
  <path d="M403 60.5L410 60.5L410 19.5L403 19.5L403 60.5Z" fill="#4A4A4A"/>
  <path d="M422 60.5L429 60.5L429 27.5L422 27.5L422 60.5ZM422 22.5L429 22.5L429 15.5L422 15.5L422 22.5Z" fill="#4A4A4A"/>
  <path d="M431 27.5L438 27.5L438 32.5C438.667 30.8333 439.833 29.5833 441.5 28.75C443.167 27.9167 445 27.5 447 27.5L447 34.5C446.333 34.5 445.667 34.5 445 34.5C444.333 34.5 443.667 34.5 443 34.5C441.667 34.5 440.5 34.75 439.5 35.25C438.5 35.75 437.75 36.5 437.25 37.5C436.75 38.5 436.5 39.8333 436.5 41.5L436.5 60.5L431 60.5L431 27.5Z" fill="#4A4A4A"/>
  <path d="M448 27.5L455 27.5L455 60.5L448 60.5L448 27.5ZM448 22.5L455 22.5L455 15.5L448 15.5L448 22.5Z" fill="#4A4A4A"/>
  <path d="M457 27.5L464 27.5L464 32C464.667 30.3333 465.833 29.0833 467.5 28.25C469.167 27.4167 471 27 473 27C475 27 476.75 27.4167 478.25 28.25C479.75 29.0833 480.917 30.3333 481.75 32C482.583 30.3333 483.833 29.0833 485.5 28.25C487.167 27.4167 489 27 491 27C492.333 27 493.583 27.25 494.75 27.75C495.917 28.25 496.917 29 497.75 30C498.583 31 499.25 32.25 499.75 33.75C500.25 35.25 500.5 37 500.5 39L500.5 60.5L493.5 60.5L493.5 39C493.5 37.6667 493.25 36.5833 492.75 35.75C492.25 34.9167 491.5 34.3333 490.5 34C489.5 33.6667 488.333 33.5 487 33.5C485.667 33.5 484.5 33.6667 483.5 34C482.5 34.3333 481.75 34.9167 481.25 35.75C480.75 36.5833 480.5 37.6667 480.5 39L480.5 60.5L473.5 60.5L473.5 39C473.5 37.6667 473.25 36.5833 472.75 35.75C472.25 34.9167 471.5 34.3333 470.5 34C469.5 33.6667 468.333 33.5 467 33.5C465.667 33.5 464.5 33.6667 463.5 34C462.5 34.3333 461.75 34.9167 461.25 35.75C460.75 36.5833 460.5 37.6667 460.5 39L460.5 60.5L457 60.5L457 27.5Z" fill="#4A4A4A"/>
</svg>
