<?xml version="1.0" encoding="UTF-8" standalone="no"?>
<svg width="500" height="120" viewBox="0 0 500 120" fill="none" xmlns="http://www.w3.org/2000/svg">
  <path d="M100.5 60C100.5 54 102.5 49.5 106.5 46.5C110.5 43.5 114.833 42 119.5 42C122.167 42 124.5 42.5 126.5 43.5C128.5 44.5 130.167 45.8333 131.5 47.5C132.833 49.1667 133.833 51 134.5 53C135.167 55 135.5 57.1667 135.5 59.5C135.5 61.8333 135.167 64 134.5 66C133.833 68 132.833 69.8333 131.5 71.5C130.167 73.1667 128.5 74.5 126.5 75.5C124.5 76.5 122.167 77 119.5 77C117.5 77 115.667 76.6667 114 76C112.333 75.3333 110.833 74.3333 109.5 73C108.167 71.6667 107.167 70 106.5 68C105.833 66 105.5 63.8333 105.5 61.5L100.5 60ZM119.5 72C121.333 72 122.833 71.6667 124 71C125.167 70.3333 126.167 69.3333 126.9 68C127.633 66.6667 128.167 65.1667 128.5 63.5C128.833 61.8333 129 60.1667 129 58.5C129 56.8333 128.833 55.1667 128.5 53.5C128.167 51.8333 127.633 50.3333 126.9 49C126.167 47.6667 125.167 46.6667 124 46C122.833 45.3333 121.333 45 119.5 45C117.667 45 116.167 45.3333 115 46C113.833 46.6667 112.833 47.6667 112 49C111.167 50.3333 110.583 51.8333 110.25 53.5C109.917 55.1667 109.75 56.8333 109.75 58.5C109.75 60.1667 109.917 61.8333 110.25 63.5C110.583 65.1667 111.167 66.6667 112 68C112.833 69.3333 113.833 70.3333 115 71C116.167 71.6667 117.667 72 119.5 72Z" fill="#4A4A4A"/>
  <path d="M136 42L136.5 48L138 48C139.333 48 140.5 48.1667 141.5 48.5C142.5 48.8333 143.333 49.3333 144 50C144.667 50.6667 145.167 51.5 145.5 52.5C145.833 53.5 146 54.6667 146 56C146 57.3333 145.833 58.5 145.5 59.5C145.167 60.5 144.667 61.3333 144 62C143.333 62.6667 142.5 63.1667 141.5 63.5C140.5 63.8333 139.333 64 138 64L136.5 64L136 70L138 70C140.667 70 143 69.6667 145 69C147 68.3333 148.667 67.3333 150 66C151.333 64.6667 152.333 63 153 61C153.667 59 154 56.6667 154 54C154 51.3333 153.667 49 153 47C152.333 45 151.333 43.3333 150 42C148.667 40.6667 147 39.6667 145 39C143 38.3333 140.667 38 138 38L136 38L136 42Z" fill="#4A4A4A"/>
  <path d="M155 38L156 45L156.5 45C158.5 45 160.167 45.3333 161.5 46C162.833 46.6667 163.833 47.6667 164.5 49C165.167 50.3333 165.5 52 165.5 54C165.5 56 165.167 57.6667 164.5 59C163.833 60.3333 162.833 61.3333 161.5 62C160.167 62.6667 158.5 63 156.5 63L155.5 63L155 70L156.5 70C159.167 70 161.5 69.5833 163.5 68.75C165.5 67.9167 167.167 66.75 168.5 65.25C169.833 63.75 170.833 62 171.5 60C172.167 58 172.5 55.8333 172.5 53.5C172.5 51.1667 172.167 49 171.5 47C170.833 45 169.833 43.25 168.5 41.75C167.167 40.25 165.5 39.0833 163.5 38.25C161.5 37.4167 159.167 37 156.5 37L155 37L155 38Z" fill="#4A4A4A"/>
  <path d="M174 38L175 45L176 45C177.333 45 178.5 45.1667 179.5 45.5C180.5 45.8333 181.333 46.3333 182 47C182.667 47.6667 183.167 48.5 183.5 49.5C183.833 50.5 184 51.6667 184 53C184 54.3333 183.833 55.5 183.5 56.5C183.167 57.5 182.667 58.3333 182 59C181.333 59.6667 180.5 60.1667 179.5 60.5C178.5 60.8333 177.333 61 176 61L174 61L174 70L181 70L181 61L180 61C182.667 61 185 60.6667 187 60C189 59.3333 190.667 58.3333 192 57C193.333 55.6667 194.333 54 195 52C195.667 50 196 47.6667 196 45C196 42.3333 195.667 40 195 38C194.333 36 193.333 34.3333 192 33C190.667 31.6667 189 30.6667 187 30C185 29.3333 182.667 29 180 29L174 29L174 38Z" fill="#4A4A4A"/>
  <path d="M197 38L198 45L199 45C200.333 45 201.5 45.1667 202.5 45.5C203.5 45.8333 204.333 46.3333 205 47C205.667 47.6667 206.167 48.5 206.5 49.5C206.833 50.5 207 51.6667 207 53C207 54.3333 206.833 55.5 206.5 56.5C206.167 57.5 205.667 58.3333 205 59C204.333 59.6667 203.5 60.1667 202.5 60.5C201.5 60.8333 200.333 61 199 61L197 61L197 70L204 70L204 61L203 61C205.667 61 208 60.6667 210 60C212 59.3333 213.667 58.3333 215 57C216.333 55.6667 217.333 54 218 52C218.667 50 219 47.6667 219 45C219 42.3333 218.667 40 218 38C217.333 36 216.333 34.3333 215 33C213.667 31.6667 212 30.6667 210 30C208 29.3333 205.667 29 203 29L197 29L197 38Z" fill="#4A4A4A"/>
  <path d="M220 70L227 70L227 29L220 29L220 70Z" fill="#4A4A4A"/>
  <path d="M239 70L246 70L246 37L239 37L239 70ZM239 32L246 32L246 25L239 25L239 32Z" fill="#4A4A4A"/>
  <path d="M248 37L255 37L255 42C255.667 40.3333 256.833 39.0833 258.5 38.25C260.167 37.4167 262 37 264 37L264 44C263.333 44 262.667 44 262 44C261.333 44 260.667 44 260 44C258.667 44 257.5 44.25 256.5 44.75C255.5 45.25 254.75 46 254.25 47C253.75 48 253.5 49.3333 253.5 51L253.5 70L248 70L248 37Z" fill="#4A4A4A"/>
  <path d="M265 37L272 37L272 70L265 70L265 37ZM265 32L272 32L272 25L265 25L265 32Z" fill="#4A4A4A"/>
  <path d="M274 37L281 37L281 41.5C281.667 39.8333 282.833 38.5833 284.5 37.75C286.167 36.9167 288 36.5 290 36.5C292 36.5 293.75 36.9167 295.25 37.75C296.75 38.5833 297.917 39.8333 298.75 41.5C299.583 39.8333 300.833 38.5833 302.5 37.75C304.167 36.9167 306 36.5 308 36.5C309.333 36.5 310.583 36.75 311.75 37.25C312.917 37.75 313.917 38.5 314.75 39.5C315.583 40.5 316.25 41.75 316.75 43.25C317.25 44.75 317.5 46.5 317.5 48.5L317.5 70L310.5 70L310.5 48.5C310.5 47.1667 310.25 46.0833 309.75 45.25C309.25 44.4167 308.5 43.8333 307.5 43.5C306.5 43.1667 305.333 43 304 43C302.667 43 301.5 43.1667 300.5 43.5C299.5 43.8333 298.75 44.4167 298.25 45.25C297.75 46.0833 297.5 47.1667 297.5 48.5L297.5 70L290.5 70L290.5 48.5C290.5 47.1667 290.25 46.0833 289.75 45.25C289.25 44.4167 288.5 43.8333 287.5 43.5C286.5 43.1667 285.333 43 284 43C282.667 43 281.5 43.1667 280.5 43.5C279.5 43.8333 278.75 44.4167 278.25 45.25C277.75 46.0833 277.5 47.1667 277.5 48.5L277.5 70L274 70L274 37Z" fill="#4A4A4A"/>
</svg>
