<?xml version="1.0" encoding="UTF-8" standalone="no"?>
<svg width="500" height="120" viewBox="0 0 500 120" fill="none" xmlns="http://www.w3.org/2000/svg">
  <path d="M129.5 60C129.5 54 131.5 49.5 135.5 46.5C139.5 43.5 143.833 42 148.5 42C151.167 42 153.5 42.5 155.5 43.5C157.5 44.5 159.167 45.8333 160.5 47.5C161.833 49.1667 162.833 51 163.5 53C164.167 55 164.5 57.1667 164.5 59.5C164.5 61.8333 164.167 64 163.5 66C162.833 68 161.833 69.8333 160.5 71.5C159.167 73.1667 157.5 74.5 155.5 75.5C153.5 76.5 151.167 77 148.5 77C146.5 77 144.667 76.6667 143 76C141.333 75.3333 139.833 74.3333 138.5 73C137.167 71.6667 136.167 70 135.5 68C134.833 66 134.5 63.8333 134.5 61.5L129.5 60ZM148.5 72C150.333 72 151.833 71.6667 153 71C154.167 70.3333 155.167 69.3333 155.9 68C156.633 66.6667 157.167 65.1667 157.5 63.5C157.833 61.8333 158 60.1667 158 58.5C158 56.8333 157.833 55.1667 157.5 53.5C157.167 51.8333 156.633 50.3333 155.9 49C155.167 47.6667 154.167 46.6667 153 46C151.833 45.3333 150.333 45 148.5 45C146.667 45 145.167 45.3333 144 46C142.833 46.6667 141.833 47.6667 141 49C140.167 50.3333 139.583 51.8333 139.25 53.5C138.917 55.1667 138.75 56.8333 138.75 58.5C138.75 60.1667 138.917 61.8333 139.25 63.5C139.583 65.1667 140.167 66.6667 141 68C141.833 69.3333 142.833 70.3333 144 71C145.167 71.6667 146.667 72 148.5 72Z" fill="#4A4A4A"/>
  <path d="M165 42L165.5 48L167 48C168.333 48 169.5 48.1667 170.5 48.5C171.5 48.8333 172.333 49.3333 173 50C173.667 50.6667 174.167 51.5 174.5 52.5C174.833 53.5 175 54.6667 175 56C175 57.3333 174.833 58.5 174.5 59.5C174.167 60.5 173.667 61.3333 173 62C172.333 62.6667 171.5 63.1667 170.5 63.5C169.5 63.8333 168.333 64 167 64L165.5 64L165 70L167 70C169.667 70 172 69.6667 174 69C176 68.3333 177.667 67.3333 179 66C180.333 64.6667 181.333 63 182 61C182.667 59 183 56.6667 183 54C183 51.3333 182.667 49 182 47C181.333 45 180.333 43.3333 179 42C177.667 40.6667 176 39.6667 174 39C172 38.3333 169.667 38 167 38L165 38L165 42Z" fill="#4A4A4A"/>
  <path d="M184 38L185 45L185.5 45C187.5 45 189.167 45.3333 190.5 46C191.833 46.6667 192.833 47.6667 193.5 49C194.167 50.3333 194.5 52 194.5 54C194.5 56 194.167 57.6667 193.5 59C192.833 60.3333 191.833 61.3333 190.5 62C189.167 62.6667 187.5 63 185.5 63L184.5 63L184 70L185.5 70C188.167 70 190.5 69.5833 192.5 68.75C194.5 67.9167 196.167 66.75 197.5 65.25C198.833 63.75 199.833 62 200.5 60C201.167 58 201.5 55.8333 201.5 53.5C201.5 51.1667 201.167 49 200.5 47C199.833 45 198.833 43.25 197.5 41.75C196.167 40.25 194.5 39.0833 192.5 38.25C190.5 37.4167 188.167 37 185.5 37L184 37L184 38Z" fill="#4A4A4A"/>
  <path d="M203 38L204 45L205 45C206.333 45 207.5 45.1667 208.5 45.5C209.5 45.8333 210.333 46.3333 211 47C211.667 47.6667 212.167 48.5 212.5 49.5C212.833 50.5 213 51.6667 213 53C213 54.3333 212.833 55.5 212.5 56.5C212.167 57.5 211.667 58.3333 211 59C210.333 59.6667 209.5 60.1667 208.5 60.5C207.5 60.8333 206.333 61 205 61L203 61L203 70L210 70L210 61L209 61C211.667 61 214 60.6667 216 60C218 59.3333 219.667 58.3333 221 57C222.333 55.6667 223.333 54 224 52C224.667 50 225 47.6667 225 45C225 42.3333 224.667 40 224 38C223.333 36 222.333 34.3333 221 33C219.667 31.6667 218 30.6667 216 30C214 29.3333 211.667 29 209 29L203 29L203 38Z" fill="#4A4A4A"/>
  <path d="M226 38L227 45L228 45C229.333 45 230.5 45.1667 231.5 45.5C232.5 45.8333 233.333 46.3333 234 47C234.667 47.6667 235.167 48.5 235.5 49.5C235.833 50.5 236 51.6667 236 53C236 54.3333 235.833 55.5 235.5 56.5C235.167 57.5 234.667 58.3333 234 59C233.333 59.6667 232.5 60.1667 231.5 60.5C230.5 60.8333 229.333 61 228 61L226 61L226 70L233 70L233 61L232 61C234.667 61 237 60.6667 239 60C241 59.3333 242.667 58.3333 244 57C245.333 55.6667 246.333 54 247 52C247.667 50 248 47.6667 248 45C248 42.3333 247.667 40 247 38C246.333 36 245.333 34.3333 244 33C242.667 31.6667 241 30.6667 239 30C237 29.3333 234.667 29 232 29L226 29L226 38Z" fill="#4A4A4A"/>
  <path d="M249 70L256 70L256 29L249 29L249 70Z" fill="#4A4A4A"/>
  <path d="M268 70L275 70L275 37L268 37L268 70ZM268 32L275 32L275 25L268 25L268 32Z" fill="#4A4A4A"/>
  <path d="M277 37L284 37L284 42C284.667 40.3333 285.833 39.0833 287.5 38.25C289.167 37.4167 291 37 293 37L293 44C292.333 44 291.667 44 291 44C290.333 44 289.667 44 289 44C287.667 44 286.5 44.25 285.5 44.75C284.5 45.25 283.75 46 283.25 47C282.75 48 282.5 49.3333 282.5 51L282.5 70L277 70L277 37Z" fill="#4A4A4A"/>
  <path d="M294 37L301 37L301 70L294 70L294 37ZM294 32L301 32L301 25L294 25L294 32Z" fill="#4A4A4A"/>
  <path d="M303 37L310 37L310 41.5C310.667 39.8333 311.833 38.5833 313.5 37.75C315.167 36.9167 317 36.5 319 36.5C321 36.5 322.75 36.9167 324.25 37.75C325.75 38.5833 326.917 39.8333 327.75 41.5C328.583 39.8333 329.833 38.5833 331.5 37.75C333.167 36.9167 335 36.5 337 36.5C338.333 36.5 339.583 36.75 340.75 37.25C341.917 37.75 342.917 38.5 343.75 39.5C344.583 40.5 345.25 41.75 345.75 43.25C346.25 44.75 346.5 46.5 346.5 48.5L346.5 70L339.5 70L339.5 48.5C339.5 47.1667 339.25 46.0833 338.75 45.25C338.25 44.4167 337.5 43.8333 336.5 43.5C335.5 43.1667 334.333 43 333 43C331.667 43 330.5 43.1667 329.5 43.5C328.5 43.8333 327.75 44.4167 327.25 45.25C326.75 46.0833 326.5 47.1667 326.5 48.5L326.5 70L319.5 70L319.5 48.5C319.5 47.1667 319.25 46.0833 318.75 45.25C318.25 44.4167 317.5 43.8333 316.5 43.5C315.5 43.1667 314.333 43 313 43C311.667 43 310.5 43.1667 309.5 43.5C308.5 43.8333 307.75 44.4167 307.25 45.25C306.75 46.0833 306.5 47.1667 306.5 48.5L306.5 70L303 70L303 37Z" fill="#4A4A4A"/>
</svg>
