<svg width="100" height="100" viewBox="0 0 100 100" fill="none" xmlns="http://www.w3.org/2000/svg">
  <rect width="100" height="100" fill="black"/>
  <path d="M29.5 50.5C29.5 44.5 31.5 40 35.5 37C39.5 34 43.8333 32.5 48.5 32.5C51.1667 32.5 53.5 33 55.5 34C57.5 35 59.1667 36.3333 60.5 38C61.8333 39.6667 62.8333 41.5 63.5 43.5C64.1667 45.5 64.5 47.6667 64.5 50C64.5 52.3333 64.1667 54.5 63.5 56.5C62.8333 58.5 61.8333 60.3333 60.5 62C59.1667 63.6667 57.5 65 55.5 66C53.5 67 51.1667 67.5 48.5 67.5C46.5 67.5 44.6667 67.1667 43 66.5C41.3333 65.8333 39.8333 64.8333 38.5 63.5C37.1667 62.1667 36.1667 60.5 35.5 58.5C34.8333 56.5 34.5 54.3333 34.5 52L29.5 50.5ZM48.5 62.5C50.3333 62.5 51.8333 62.1667 53 61.5C54.1667 60.8333 55.1667 59.8333 55.9 58.5C56.6333 57.1667 57.1667 55.6667 57.5 54C57.8333 52.3333 58 50.6667 58 49C58 47.3333 57.8333 45.6667 57.5 44C57.1667 42.3333 56.6333 40.8333 55.9 39.5C55.1667 38.1667 54.1667 37.1667 53 36.5C51.8333 35.8333 50.3333 35.5 48.5 35.5C46.6667 35.5 45.1667 35.8333 44 36.5C42.8333 37.1667 41.8333 38.1667 41 39.5C40.1667 40.8333 39.5833 42.3333 39.25 44C38.9167 45.6667 38.75 47.3333 38.75 49C38.75 50.6667 38.9167 52.3333 39.25 54C39.5833 55.6667 40.1667 57.1667 41 58.5C41.8333 59.8333 42.8333 60.8333 44 61.5C45.1667 62.1667 46.6667 62.5 48.5 62.5Z" fill="#5A5A5A"/>
  <path d="M65 32.5L65.5 38.5L67 38.5C68.3333 38.5 69.5 38.6667 70.5 39C71.5 39.3333 72.3333 39.8333 73 40.5C73.6667 41.1667 74.1667 42 74.5 43C74.8333 44 75 45.1667 75 46.5C75 47.8333 74.8333 49 74.5 50C74.1667 51 73.6667 51.8333 73 52.5C72.3333 53.1667 71.5 53.6667 70.5 54C69.5 54.3333 68.3333 54.5 67 54.5L65.5 54.5L65 60.5L67 60.5C69.6667 60.5 72 60.1667 74 59.5C76 58.8333 77.6667 57.8333 79 56.5C80.3333 55.1667 81.3333 53.5 82 51.5C82.6667 49.5 83 47.1667 83 44.5C83 41.8333 82.6667 39.5 82 37.5C81.3333 35.5 80.3333 33.8333 79 32.5C77.6667 31.1667 76 30.1667 74 29.5C72 28.8333 69.6667 28.5 67 28.5L65 28.5L65 32.5Z" fill="#5A5A5A"/>
</svg>
